<svg viewBox="0 0 1024 1024" width="128" height="128" xmlns="http://www.w3.org/2000/svg">
  <path d="M669.866667 546.133333s-81.066667 0-76.8 55.466667c4.266667 59.733333-76.8 17.066667-93.866667 68.266667-21.333333 59.733333 8.533333 51.2 25.6 93.866666 8.533333 25.6-42.666667 42.666667-34.133333 89.6 8.533333 59.733333 59.733333 29.866667 76.8 68.266667 8.533333 29.866667-25.6 51.2-106.666667 51.2-68.266667 0-196.266667 0-243.2-4.266667 0 0-132.266667-4.266667-132.266667-93.866666 0 0-4.266667-128 76.8-221.866667 0 0 89.6-110.933333 234.666667-110.933333l273.066667 4.266666z m-179.2-51.2c-123.733333 0-221.866667-98.133333-221.866667-221.866666s98.133333-221.866667 221.866667-221.866667c123.733333 0 221.866667 98.133333 221.866666 221.866667 0 119.466667-98.133333 221.866667-221.866666 221.866666z m213.333333 179.2c-123.733333 29.866667-76.8 209.066667 42.666667 192 115.2-25.6 98.133333-217.6-42.666667-192z m183.466667 102.4c4.266667 34.133333 34.133333 29.866667 42.666666 46.933334 0 8.533333-4.266667 46.933333-21.333333 51.2-17.066667 0-34.133333-4.266667-51.2 0-8.533333 4.266667-21.333333 8.533333-25.6 21.333333-8.533333 25.6 8.533333 46.933333 0 55.466667-17.066667 8.533333-46.933333 25.6-55.466667 17.066666-17.066667-17.066667-17.066667-34.133333-46.933333-34.133333-42.666667 0-42.666667 42.666667-59.733333 42.666667-21.333333 0-55.466667-17.066667-55.466667-29.866667 4.266667-21.333333 17.066667-34.133333-4.266667-55.466667-25.6-21.333333-55.466667 0-68.266666-8.533333-17.066667-8.533333-21.333333-34.133333-17.066667-51.2 4.266667-17.066667 42.666667-17.066667 42.666667-55.466667 0-29.866667-34.133333-34.133333-42.666667-55.466666-4.266667-17.066667 4.266667-42.666667 21.333333-46.933334 25.6-8.533333 42.666667 8.533333 68.266667-8.533333 17.066667-17.066667 8.533333-51.2 8.533333-59.733333 4.266667-17.066667 25.6-21.333333 42.666667-21.333334 29.866667 0 21.333333 34.133333 59.733333 42.666667 42.666667 0 34.133333-17.066667 55.466667-42.666667 25.6 0 46.933333 8.533333 51.2 21.333334 8.533333 21.333333-8.533333 51.2 21.333333 72.533333 25.6 17.066667 51.2-4.266667 68.266667 0 8.533333 4.266667 17.066667 21.333333 21.333333 42.666667-12.8 12.8-59.733333 8.533333-55.466666 55.466666z"></path>
</svg>