<svg viewBox="0 0 1024 1024" width="128" height="128" xmlns="http://www.w3.org/2000/svg"><path d="M913.8943 86.739527 110.1057 86.739527c-15.479553 0-28.039613 12.549827-28.039613 28.039613s12.559037 28.039613 28.039613 28.039613L110.1057 909.22086c0 15.488763 12.559037 28.039613 28.039613 28.039613 15.479553 0 28.039613-12.549827 28.039613-28.039613L166.184927 142.81773l37.385469 0L203.570395 909.22086c0 15.488763 12.559037 28.039613 28.039613 28.039613s28.039613-12.549827 28.039613-28.039613L259.649622 142.81773l37.385469 0L297.03509 909.22086c0 15.488763 12.559037 28.039613 28.039613 28.039613s28.039613-12.549827 28.039613-28.039613L353.114316 142.81773l317.777507 0L670.891823 909.22086c0 15.488763 12.559037 28.039613 28.039613 28.039613s28.039613-12.549827 28.039613-28.039613L726.97105 142.81773l37.385469 0L764.356518 909.22086c0 15.488763 12.559037 28.039613 28.039613 28.039613s28.039613-12.549827 28.039613-28.039613L820.435745 142.81773l37.385469 0L857.821213 909.22086c0 15.488763 12.559037 28.039613 28.039613 28.039613 15.479553 0 28.039613-12.549827 28.039613-28.039613L913.90044 142.81773c15.479553 0 28.039613-12.549827 28.039613-28.039613S929.373853 86.739527 913.8943 86.739527z"></path></svg>