<svg viewBox="0 0 1024 1024" width="128" height="128" xmlns="http://www.w3.org/2000/svg">
  <path d="M512 346.112c-91.136 0-165.376 74.24-165.376 165.376S420.864 676.864 512 676.864s165.376-74.24 165.376-165.376S603.136 346.112 512 346.112z m0 269.312c-57.344 0-103.936-46.592-103.936-103.936 0-57.344 46.592-103.936 103.936-103.936s103.936 46.592 103.936 103.936S569.344 615.424 512 615.424z m437.76-119.296C876.032 356.352 702.464 215.04 512 215.04S147.968 356.352 74.752 496.128L66.048 512l8.704 15.872C147.968 667.648 321.536 808.96 512 808.96s364.032-141.824 437.76-281.088L957.952 512l-8.192-15.872zM512 743.424c-156.672 0-305.664-116.736-373.248-231.424C206.848 396.8 355.328 280.576 512 280.576S817.664 396.8 885.248 512C817.664 626.688 668.672 743.424 512 743.424z"></path>
</svg>